<svg width="32" height="32" viewBox="0 0 32 32" fill="none" xmlns="http://www.w3.org/2000/svg">
  <path d="M28.8 8.4c-1 0.4-2.1 0.7-3.2 0.8 1.2-0.7 2.1-1.8 2.5-3.1-1.1 0.7-2.3 1.1-3.6 1.4-1-1.1-2.5-1.8-4.1-1.8-3.1 0-5.6 2.5-5.6 5.6 0 0.4 0 0.9 0.1 1.3-4.7-0.2-8.8-2.5-11.6-5.9-0.5 0.8-0.8 1.8-0.8 2.8 0 1.9 1 3.6 2.5 4.6-0.9 0-1.8-0.3-2.5-0.7v0.1c0 2.7 1.9 5 4.4 5.5-0.5 0.1-1 0.2-1.5 0.2-0.4 0-0.7 0-1.1-0.1 0.7 2.3 2.9 3.9 5.4 4-2 1.6-4.5 2.5-7.2 2.5-0.5 0-0.9 0-1.4-0.1 2.5 1.6 5.5 2.6 8.7 2.6 10.4 0 16.1-8.6 16.1-16.1 0-0.2 0-0.5 0-0.7 1.1-0.8 2.1-1.8 2.8-2.9z" fill="currentColor"/>
</svg>
